<?xml version="1.0" encoding="utf-8"?>
<!-- Generator: Adobe Illustrator 28.2.0, SVG Export Plug-In . SVG Version: 6.00 Build 0)  -->
<svg version="1.1" id="Capa_1" xmlns="http://www.w3.org/2000/svg" xmlns:xlink="http://www.w3.org/1999/xlink" x="0px" y="0px"
	 viewBox="0 0 116.6 128.2" style="enable-background:new 0 0 116.6 128.2;" xml:space="preserve">
<style type="text/css">
	.st0{fill:#009B00;}
	.st1{opacity:0.24;}
	.st2{opacity:0.24;clip-path:url(#SVGID_00000038392694155944100740000004615433575346465696_);}
	.st3{fill:none;stroke:#FFFFFF;stroke-miterlimit:10;}
	.st4{fill-rule:evenodd;clip-rule:evenodd;fill:#00A000;}
	.st5{fill:#00A000;}
	.st6{fill:none;stroke:#606060;stroke-width:0.5;stroke-miterlimit:10;}
	.st7{fill:#3B5B9A;}
	.st8{font-family:'WorkSans-Bold';}
	.st9{font-size:4.3201px;}
	.st10{font-family:'WorkSans-Light';}
	.st11{fill:#C13133;}
	.st12{fill:#F2C137;}
</style>
<circle class="st0" cx="58.2" cy="51" r="50"/>
<g class="st1">
	<defs>
		<circle id="SVGID_1_" class="st1" cx="58.2" cy="51" r="50"/>
	</defs>
	<clipPath id="SVGID_00000183932064920749752840000014847784460059580092_">
		<use xlink:href="#SVGID_1_"  style="overflow:visible;"/>
	</clipPath>
	<path style="opacity:0.24;clip-path:url(#SVGID_00000183932064920749752840000014847784460059580092_);" d="M-98.4,117.9
		c-2.1-1.3-3.7-2.8-4.8-4.3c-2.1-4.1-2.3-7.3-0.7-9.8c3.1-4.8,13.5-6.6,31-5.4c10.5,0.7,19.5,0.8,27.1,0.1
		c7.6-0.6,11.9-1.7,12.9-3.2c1-1.5-1.3-6.8-7-15.9c-4.7-7.2-7.5-13-8.4-17.4c-1.2-5.1-0.3-10,2.9-14.8c4.3-6.6,13-12,26.2-16.3
		C-6,26.6,9.1,23.7,26,22.3c16.9-1.4,32.3-1,46,1.2c8.8,1.4,15.7,3.7,20.5,6.8c2.8,1.8,4.8,3.8,6.3,6.1c4.7,8.5,4.7,16.2,0.2,23.2
		c-3.2,5-11.5,11.1-24.8,18.5C47.5,92.5,31.1,97.7,24.7,93.6c-1.5-1-2.5-2.4-3.1-4.3c-1-3-0.7-5.6,0.8-8
		c1.8-2.8,14.7-12.5,38.7-29.1L60.9,52c-2.1-1.3-12.2-1.2-30.5,0.3c-18.3,1.6-32.2,3.9-41.9,7c-1.8,0.4-2.9,0.9-3.3,1.4
		c-0.5,0.8,0.4,3.2,2.8,7.1C-2,85.8-0.3,99.7-6.8,109.8c-4.6,7.2-13.2,12.3-25.8,15.5c-13.4,2.6-27.5,2.7-42.3,0.2
		C-85.5,123.7-93.3,121.2-98.4,117.9z"/>
</g>
<g>
	<path class="st3" d="M58.2,70.6c2.5,0,5,0,7.5,0c1.1,0,1.1,0,1.1-1.1c0-5.2,0.1-10.5,0-15.7c-0.1-3.4,0.9-6.5,3-9.2
		c1.9-2.4,3.6-5,5.4-7.5c1.1-1.6,0.5-3.5-1.3-4c-1.1-0.3-2.1,0.2-2.9,1.3c-2,2.7-3.9,5.5-5.9,8.2c-0.7,1-1.5,2.1-2.5,2.9
		c-2.1,1.7-4.5,1.9-7.1,1c-2.9-1-5.9-0.2-7.5,2.2c-0.8,1.1-1.4,2.5-1.6,3.8c-0.5,2.9-0.7,5.8-1,8.7c-0.1,0.5,0.2,0.7,0.6,0.7
		c1,0,2,0,2.9,0c0.6,0,0.8,0.2,0.8,0.8c0,2.3,0,4.7,0,7c0,0.7,0.2,0.9,0.9,0.9C53,70.6,55.6,70.6,58.2,70.6z"/>
	<path class="st3" d="M86.8,70.6c2.6,0,5.2,0,7.7,0c0.7,0,0.9-0.2,0.9-0.9c0-2.3,0-4.6,0-6.8c0-0.7,0.2-1,1-0.9c0.9,0.1,1.8,0,2.7,0
		c0.5,0,0.7-0.1,0.6-0.7c-0.2-3.4-0.8-6.7-1.8-10c-1.1-3.5-5.2-5.6-8.8-4.5c-1.3,0.4-2.7,0.5-4,0.1c-1.3-0.5-2.7-0.4-4-0.2
		c-2.4,0.5-4.2,1.9-5.1,4.2c-1.3,3.3-1.7,6.9-2.1,10.4c-0.1,0.5,0.2,0.7,0.7,0.7c1,0,1.9,0,2.9,0c0.6,0,0.8,0.2,0.8,0.8
		c0,2.3,0,4.7,0,7c0,0.6,0.2,0.9,0.8,0.9C81.6,70.6,84.2,70.6,86.8,70.6z"/>
	<path class="st3" d="M91.5,44.6c0,0.1,0.1,0.1,0.1,0.2c1.3,0,2.5,0,3.8,0c0.1,0,0.3-0.4,0.3-0.6c0-3.2-0.3-6.3-1.5-9.3
		c-1.3-3.2-3.7-4.9-7.2-4.9c-3.5,0-5.9,1.5-7.3,4.7c-1.4,3-1.6,6.3-1.6,9.5c0,0.4,0.2,0.6,0.6,0.6c0.8,0,1.6,0,2.4,0
		c0.4,0,0.8,0,1.3-0.1c-0.2-0.2-0.2-0.4-0.3-0.4c-1.4-1.7-1.7-3.6-1.3-5.7c0.3-1.5,1.3-2.2,2.8-2.2c2.3,0,4.6,0,6.9,0
		c1.2,0,2,0.6,2.4,1.7c0.2,0.6,0.4,1.2,0.4,1.8C93.2,41.6,92.7,43.2,91.5,44.6z"/>
	<path class="st3" d="M29.6,37.7c1.7,0.3,3.5,0.7,5.2,0.9c0.5,0.1,1.5-0.1,1.6-0.4c0.2-0.7,0-1.5-0.1-2.2c-0.1-0.4-0.4-0.7-0.5-1.1
		c-0.4-3.1-2.2-5.1-5-6.4c-0.2-0.1-0.4-0.3-0.6-0.4c-0.4-0.4-1.1-0.4-1.5,0c-0.1,0.1-0.2,0.3-0.4,0.3c-0.8,0.5-1.6,1-2.4,1.5
		c-1.5,0.9-2.3,2.3-2.6,3.9c-0.1,0.6-0.2,1.4-0.5,1.9c-0.4,0.8-0.5,1.7-0.2,2.3c0.2,0.4,1.2,0.3,1.8,0.5c0.1,0,0.1,0,0.2,0
		C26.4,38.3,28,38,29.6,37.7z"/>
	<path class="st3" d="M65.8,37.2c0.2,0,0.4,0,0.5,0c0.3-0.2,0.6-0.4,0.9-0.6c-0.3-0.2-0.5-0.6-0.8-0.7c-0.4-0.1-0.8-0.2-1.3-0.1
		c-0.5,0-0.8-0.1-0.9-0.7c-0.4-1.9-1-3.7-2.5-5.1c-0.9-0.9-1.9-1.2-3.2-0.7c-0.2,0.1-0.6,0.1-0.8,0.1c-1.7-0.5-3,0.3-4,1.6
		c-0.9,1.2-1.4,2.7-1.7,4.2C52,35.8,51.8,36,51.2,36c-0.4,0-0.9,0-1.2,0.2c-0.3,0.1-0.5,0.4-0.7,0.7c0.3,0.2,0.6,0.5,0.9,0.5
		c1,0,2.1-0.2,3.1-0.3c2-0.2,4-0.6,6-0.6C61.5,36.5,63.6,37,65.8,37.2z"/>
	<path class="st3" d="M57.8,38.4c-1.2,0.2-2.6,0.4-4,0.6c-0.4,0.1-0.9,0.1-1.3,0.3c-0.2,0.1-0.4,0.5-0.4,0.7c0,2.9,2.7,5.5,5.6,5.4
		c3,0,5.6-2.6,5.6-5.5c0-0.6-0.3-0.9-0.8-0.9C60.9,38.8,59.4,38.6,57.8,38.4z"/>
	<path class="st3" d="M86.8,38.6c-0.7,0-1.5,0-2.2,0c-0.8,0-1.3,0.5-1.4,1.3c0,0.3,0,0.7,0,1c0.2,2.2,2.3,3.7,4.4,3.2
		c1.8-0.4,3-2.1,2.8-4.1c-0.1-0.8-0.6-1.4-1.4-1.4C88.3,38.6,87.6,38.6,86.8,38.6z"/>
	<path class="st3" d="M29.5,70.6c-2.6,0-5.1,0-7.7,0c-0.7,0-0.9-0.2-0.9-0.9c0-2.3,0-4.6,0-6.9c0-0.7-0.2-0.9-0.9-0.9
		c-0.9,0-1.9,0-2.9,0c-0.4,0-0.6-0.2-0.6-0.6c0.3-3.5,0.8-7,2-10.3c0.9-2.4,2.7-3.7,5.1-4.3c1.3-0.3,2.7-0.3,4,0.1
		c1.3,0.5,2.7,0.3,4.1-0.1c3.6-1,7.6,1,8.7,4.5c1.1,3.3,1.6,6.6,1.9,10c0.1,0.6-0.2,0.8-0.7,0.8c-0.9,0-1.9,0-2.8,0
		c-0.7,0-0.9,0.2-0.8,0.9c0,2.3,0,4.6,0,6.8c0,0.8-0.3,1-1,1C34.6,70.6,32.1,70.6,29.5,70.6z"/>
	<path class="st3" d="M34.6,40.6c0.1,0.7-0.1,1.3-0.4,2c-0.9,1.9-3,3-5,2.8c-2.1-0.3-3.8-1.9-4.2-3.9c-0.2-0.9-0.1-0.9,0.8-1
		c0.8-0.1,1.6-0.3,2.4-0.4c1.6-0.3,3.2-0.1,4.7,0.3C33.4,40.5,33.9,40.5,34.6,40.6z"/>
</g>
<g>
	<path class="st4" d="M14.1,112L14.1,112C14.1,112.1,14.1,112.1,14.1,112c0,0.2,0.1,0.3,0.2,0.4c0.1,0.1,0.3,0.1,0.6,0.1
		c0.2,0,0.4,0,0.5-0.1c0.1,0,0.2-0.1,0.2-0.2c0-0.1-0.2-0.2-0.7-0.3c-0.1,0-0.1,0-0.1,0c0,0-0.1,0-0.1,0c-0.8-0.1-1.3-0.3-1.5-0.4
		c-0.1-0.1-0.2-0.2-0.2-0.3c-0.1-0.1-0.1-0.2-0.1-0.3c0-0.3,0.2-0.5,0.5-0.7c0.4-0.2,0.9-0.2,1.5-0.2c0.7,0,1.2,0.1,1.5,0.2
		c0.3,0.1,0.5,0.4,0.5,0.7v0h-1.3v0c0-0.1-0.1-0.2-0.2-0.2c-0.1-0.1-0.3-0.1-0.6-0.1c-0.2,0-0.3,0-0.4,0.1c-0.1,0-0.2,0.1-0.2,0.2
		c0,0.1,0.3,0.2,0.8,0.3c0.1,0,0.2,0,0.3,0c0.4,0.1,0.7,0.1,0.8,0.2c0.2,0,0.3,0.1,0.4,0.2c0.1,0.1,0.2,0.2,0.3,0.3
		c0.1,0.1,0.1,0.2,0.1,0.4c0,0.3-0.2,0.5-0.6,0.7c-0.4,0.2-0.9,0.3-1.7,0.3c-0.7,0-1.2-0.1-1.5-0.2c-0.3-0.2-0.5-0.4-0.5-0.8v0H14.1
		z M17.6,113v-3h3.6v0.7H19v0.5h2.1v0.6H19v0.6h2.3v0.7H17.6z M21.9,113v-3h1.7l1.8,2v-2h1.3v3H25l-1.8-2v2H21.9z M30.3,111.8
		l-0.7-1.1l-0.7,1.1H30.3z M28.2,113h-1.4l2.1-3h1.5l2,3H31l-0.3-0.5h-2.1L28.2,113z"/>
	<g>
		<path class="st4" d="M16,123.7l-1.2-1.1l3.7-6.4c0.2-0.4-0.1-0.8-0.5-0.8c-2.1,0-6.1,0-6.1,0v-1.6h9.8L16,123.7z"/>
		<path class="st4" d="M29.2,123.7l1.2-1.1l-3.7-6.4c-0.2-0.4,0.1-0.8,0.5-0.8c2.1,0,6.1,0,6.1,0v-1.6h-9.8L29.2,123.7z"/>
	</g>
	<path class="st4" d="M22.6,115.5C22.6,115.5,22.6,115.5,22.6,115.5l5.5,9.1l-1.5,0.8l-3.5-5.9c-0.2-0.3-0.7-0.4-0.9,0
		c-1.2,2-3.5,5.9-3.5,5.9l-1.4-0.7C17.2,124.6,22.3,116,22.6,115.5z"/>
	<circle class="st5" cx="22.6" cy="106.9" r="2.3"/>
</g>
<line class="st6" x1="37.3" y1="105.2" x2="37.3" y2="125.3"/>
<g>
	<g>
		<text transform="matrix(1 0 0 1 43.7311 125.0123)"><tspan x="0" y="0" class="st7 st8 st9">Agencia</tspan><tspan x="16.7" y="0" class="st7 st10 st9"> Pública de </tspan><tspan x="40.4" y="0" class="st7 st8 st9">Empleo</tspan></text>
		<g>
			<g>
				<g>
					<path class="st11" d="M95,115.4c-2.9,0-5.3-2.4-5.3-5.3c0-2.9,2.4-5.2,5.2-5.2c2.9,0,5.3,2.4,5.3,5.3l0,0
						c0,0.6-0.5,1.1-1.1,1.1h-7c0.4,1.1,1.6,2,2.9,2c0.6,0,1.1-0.2,1.6-0.5c0.4-0.3,1-0.2,1.3,0.1l0,0c0.5,0.5,0.4,1.4-0.2,1.7
						C97,115.1,96,115.4,95,115.4z M92.2,109h5.7c-0.4-1.1-1.6-2-2.9-2C93.7,107.1,92.6,107.9,92.2,109z"/>
				</g>
			</g>
			<g>
				<g>
					<g>
						<path class="st12" d="M71.2,115.4c-2.9,0-5.3-2.4-5.3-5.3c0-2.9,2.4-5.3,5.3-5.3c2.9,0,5.3,2.4,5.3,5.3
							C76.5,113,74.1,115.4,71.2,115.4z M71.2,107c-1.7,0-3.1,1.4-3.1,3.1c0,1.7,1.4,3.1,3.1,3.1s3.1-1.4,3.1-3.1
							C74.3,108.4,72.9,107,71.2,107z"/>
					</g>
				</g>
				<g>
					<g>
						<path class="st12" d="M75.4,115.4L75.4,115.4c-0.6,0-1.1-0.5-1.1-1.1v-4.2h2.2v4.2C76.5,114.9,76,115.4,75.4,115.4z"/>
					</g>
				</g>
			</g>
			<g>
				<g>
					<g>
						<path class="st7" d="M83.3,115.4c-2.9,0-5.3-2.4-5.3-5.3c0-2.9,2.4-5.3,5.3-5.3c2.9,0,5.3,2.4,5.3,5.3
							C88.6,113,86.2,115.4,83.3,115.4z M83.3,107c-1.7,0-3.1,1.4-3.1,3.1c0,1.7,1.4,3.1,3.1,3.1s3.1-1.4,3.1-3.1
							C86.4,108.4,85,107,83.3,107z"/>
					</g>
				</g>
				<g>
					<g>
						<path class="st7" d="M79.2,120.7L79.2,120.7c-0.6,0-1.1-0.5-1.1-1.1v-9.5h2.2v9.5C80.3,120.2,79.8,120.7,79.2,120.7z"/>
					</g>
				</g>
			</g>
			<g>
				<g>
					<g>
						<path class="st11" d="M63.3,115.4c-0.6,0-1.1-0.5-1.1-1.1c0-1.1-0.9-2-2-2c-1.1,0-2,0.9-2,2c0,0.6-0.5,1.1-1.1,1.1
							c-0.6,0-1.1-0.5-1.1-1.1c0-2.3,1.9-4.3,4.3-4.3c2.3,0,4.3,1.9,4.3,4.3C64.4,114.9,63.9,115.4,63.3,115.4z"/>
					</g>
				</g>
				<g>
					<g>
						<g>
							<path class="st11" d="M60.2,104.8c-1.3,0-2.3,1-2.3,2.3c0,1.3,1,2.3,2.3,2.3c1.3,0,2.3-1,2.3-2.3
								C62.5,105.9,61.4,104.8,60.2,104.8z"/>
						</g>
					</g>
				</g>
			</g>
			<g>
				<g>
					<g>
						<path class="st7" d="M57,115.4c-0.6,0-1.1-0.5-1.1-1.1c0-1.1-0.9-2-2-2c-1.1,0-2,0.9-2,2c0,0.6-0.5,1.1-1.1,1.1
							c-0.6,0-1.1-0.5-1.1-1.1c0-2.3,1.9-4.3,4.3-4.3c2.3,0,4.3,1.9,4.3,4.3C58.1,114.9,57.6,115.4,57,115.4z"/>
					</g>
				</g>
				<g>
					<g>
						<g>
							<path class="st7" d="M53.9,104.8c-1.3,0-2.3,1-2.3,2.3c0,1.3,1,2.3,2.3,2.3c1.3,0,2.3-1,2.3-2.3
								C56.2,105.9,55.1,104.8,53.9,104.8z"/>
						</g>
					</g>
				</g>
			</g>
			<g>
				<g>
					<g>
						<path class="st12" d="M50.7,115.4c-0.6,0-1.1-0.5-1.1-1.1c0-1.1-0.9-2-2-2s-2,0.9-2,2c0,0.6-0.5,1.1-1.1,1.1
							c-0.6,0-1.1-0.5-1.1-1.1c0-2.3,1.9-4.3,4.3-4.3s4.3,1.9,4.3,4.3C51.8,114.9,51.3,115.4,50.7,115.4z"/>
					</g>
				</g>
				<g>
					<g>
						<g>
							<path class="st12" d="M47.5,104.8c-1.3,0-2.3,1-2.3,2.3c0,1.3,1,2.3,2.3,2.3s2.3-1,2.3-2.3C49.9,105.9,48.8,104.8,47.5,104.8
								z"/>
						</g>
					</g>
				</g>
			</g>
		</g>
	</g>
</g>
</svg>
