<?xml version="1.0" encoding="utf-8"?>
<!-- Generator: Adobe Illustrator 28.2.0, SVG Export Plug-In . SVG Version: 6.00 Build 0)  -->
<svg version="1.1" id="Capa_1" xmlns="http://www.w3.org/2000/svg" xmlns:xlink="http://www.w3.org/1999/xlink" x="0px" y="0px"
	 viewBox="0 0 116.6 128.2" style="enable-background:new 0 0 116.6 128.2;" xml:space="preserve">
<style type="text/css">
	.st0{fill:#009B00;}
	.st1{opacity:0.24;}
	.st2{clip-path:url(#SVGID_00000109010855110884697150000010300886475739386755_);}
	.st3{opacity:0.24;enable-background:new    ;}
	.st4{fill-rule:evenodd;clip-rule:evenodd;fill:#00A000;}
	.st5{fill:#00A000;}
	.st6{fill:none;stroke:#606060;stroke-width:0.5;stroke-miterlimit:10;}
	.st7{fill:#FFFFFF;}
	.st8{fill:#00334F;}
	.st9{fill:#96BF26;}
	.st10{fill:#6BC2D9;}
</style>
<circle class="st0" cx="58.3" cy="50.2" r="50"/>
<g class="st1">
	<g>
		<defs>
			<circle id="SVGID_1_" cx="58.3" cy="50.2" r="50"/>
		</defs>
		<clipPath id="SVGID_00000171715336450942317360000012040523718105450403_">
			<use xlink:href="#SVGID_1_"  style="overflow:visible;"/>
		</clipPath>
		<g style="clip-path:url(#SVGID_00000171715336450942317360000012040523718105450403_);">
			<path class="st3" d="M149.8-93.4c2.5-0.1,4.6,0.2,6.4,0.8c4,2.2,6,4.8,6.1,7.7c0.1,5.7-7.4,13.1-22.5,22
				c-9,5.3-16.5,10.4-22.5,15.2s-8.9,8.1-8.8,9.9s5,4.9,14.8,9.2c7.9,3.2,13.5,6.5,16.7,9.6c3.9,3.5,5.9,8.1,6,13.9
				c0.2,7.9-3.9,17.3-12.4,28.2C125,34.1,114.2,45,101,55.7s-26,19.1-38.7,25c-8.1,3.8-15,5.8-20.7,5.9c-3.3,0.1-6.2-0.4-8.7-1.5
				c-8.6-4.4-13.1-10.7-13.3-19.1c-0.1-5.9,3.2-15.7,10-29.3C43.6,9.9,54.3-3.6,61.9-3.8c1.8,0,3.5,0.6,5,1.8c2.5,1.9,3.8,4.2,3.9,7
				c0.1,3.3-5.1,18.6-15.5,45.9h0.2c2.5-0.1,10.8-5.9,25-17.5S104.8,12,111,4c1.3-1.3,1.9-2.3,1.9-3c0-1-2.1-2.4-6.3-4.3
				C88.4-12.5,79.1-23.1,78.8-35c-0.2-8.5,4-17.6,12.6-27.4c9.6-9.8,21.2-17.8,34.8-24C135.8-90.9,143.7-93.3,149.8-93.4L149.8-93.4
				z"/>
		</g>
	</g>
</g>
<g>
	<path class="st4" d="M6.1,111.1L6.1,111.1C6.1,111.1,6,111.2,6.1,111.1c0,0.2,0.1,0.3,0.2,0.4s0.3,0.1,0.6,0.1c0.2,0,0.4,0,0.5-0.1
		s0.2-0.1,0.2-0.2c0-0.1-0.2-0.2-0.7-0.3c-0.1,0-0.1,0-0.1,0s-0.1,0-0.1,0c-0.8-0.1-1.3-0.3-1.5-0.4c-0.1-0.1-0.2-0.2-0.2-0.3
		c-0.1-0.1-0.1-0.2-0.1-0.3c0-0.3,0.2-0.5,0.5-0.7c0.4-0.2,0.9-0.2,1.6-0.2s1.2,0.1,1.5,0.2s0.5,0.4,0.5,0.7v0H7.6
		c0-0.1-0.1-0.2-0.2-0.3c-0.1-0.1-0.3-0.1-0.6-0.1c-0.2,0-0.3,0-0.4,0.1c-0.1,0-0.2,0.1-0.2,0.2c0,0.1,0.3,0.2,0.8,0.3
		c0.1,0,0.2,0,0.3,0c0.4,0.1,0.7,0.1,0.9,0.2c0.2,0.1,0.3,0.1,0.4,0.2c0.1,0.1,0.2,0.2,0.3,0.3C9,111,9,111.1,9,111.2
		c0,0.3-0.2,0.6-0.6,0.7c-0.4,0.2-1,0.3-1.7,0.3s-1.3-0.1-1.6-0.2c-0.3-0.2-0.5-0.4-0.5-0.8v-0.1L6.1,111.1L6.1,111.1z M9.6,112.2
		V109h3.7v0.7H11v0.5h2.1v0.7H11v0.6h2.4v0.7H9.6z M14,112.2V109h1.8l1.9,2.1V109H19v3.1h-1.8l-1.8-2.1v2.1H14z M22.6,110.9
		l-0.7-1.1l-0.7,1.1H22.6z M20.4,112.2h-1.4l2.1-3.1h1.5l2,3.1h-1.5l-0.3-0.6h-2.2L20.4,112.2L20.4,112.2z"/>
	<g>
		<path class="st4" d="M8,123.1L6.8,122l3.8-6.6c0.2-0.4-0.1-0.8-0.5-0.8H3.9v-1.6h10C13.9,112.9,8,123.1,8,123.1z"/>
		<path class="st4" d="M21.5,123.1l1.2-1.2l-3.8-6.6c-0.2-0.4,0-0.8,0.5-0.8h6.2v-1.6h-10C15.6,112.9,21.5,123.1,21.5,123.1z"/>
	</g>
	<path class="st4" d="M14.7,114.7L14.7,114.7l5.6,9.3l-1.5,0.8l-3.6-6.1c-0.2-0.4-0.7-0.4-0.9,0c-1.2,2-3.6,6.1-3.6,6.1L9.2,124
		C9.2,124,14.4,115.2,14.7,114.7L14.7,114.7z"/>
	<circle class="st5" cx="14.8" cy="105.9" r="2.3"/>
</g>
<line class="st6" x1="29.7" y1="104.2" x2="29.7" y2="124.7"/>
<g id="o0UWtX.tif">
	<g>
		<path class="st7" d="M58.5,26.5c9.9,0.1,18.5,7.2,20.3,16.8c1.4,7.6-0.7,14.1-6.2,19.5c-1.2,1.2-2.3,2.4-2.8,4
			c-0.2,0.5-0.2,0.9,0.4,1.2c0.4,0.2,0.8,0.8,0.7,1.1c-0.1,0.4-0.6,0.8-1.1,1c-0.9,0.4-1.4,2.6-0.6,3.3c1.1,0.9,1,1.5-0.3,2.2
			c-0.4,0.2-0.7,0.7-0.8,1.1c-0.2,0.3-0.1,0.8-0.2,1.1c-0.4,1.8-1.3,2.7-3.2,2.7c-0.8,0-1.2,0.2-1.4,1c-0.7,2.8-1.5,3.3-4.4,3.3
			c-0.6,0-1.2,0-1.8,0c-2.1-0.1-3.2-0.9-3.6-3c-0.2-1.1-0.6-1.4-1.7-1.4c-1.6,0-2.7-1.1-3-2.8c-0.2-1.1-0.2-2-1.6-2.4
			c-0.7-0.2-0.7-1.1,0-1.7c1.2-1,0.8-2.9-0.5-3.6c-0.4-0.2-0.8-0.6-0.8-1s0.3-0.9,0.6-1.1c0.6-0.3,0.7-0.8,0.4-1.3
			c-0.6-1.1-1.1-2.3-2-3.2c-2.5-2.5-4.6-5.1-5.9-8.3c-4.5-10.9,1.4-24,12.6-27.7c1.1-0.4,2.3-0.7,3.5-0.9
			C56.1,26.6,57.3,26.6,58.5,26.5L58.5,26.5z M58.3,68L58.3,68c2.6,0,5.2,0,7.8,0c0.7,0,1.2-0.2,1.3-0.9c0.4-2.4,1.8-4.2,3.5-5.8
			c4.1-3.8,6.2-8.6,6.1-14.1C76.7,35.7,66.8,27.4,55.5,29c-9.2,1.3-16.4,9.8-16,19c0.2,5.2,2.3,9.7,6.2,13.3c1.7,1.5,3,3.3,3.4,5.5
			c0.2,0.9,0.6,1.2,1.5,1.2C53.1,68,55.7,68,58.3,68L58.3,68z M58.3,70.3c-2.4,0-4.9,0-7.3,0c-0.4,0-1,0.1-1.1,0.3
			c-0.6,0.8,0.6,2.9,1.6,2.9c4.3,0,8.6,0,13,0c1.9,0,1.9,0,2.2-1.9c0.2-1-0.1-1.3-1.1-1.3C63.1,70.3,60.7,70.3,58.3,70.3z
			 M58.3,75.8c-2,0-4.1,0.1-6.1,0c-1.8-0.1-1.7,0.7-1.2,2c0.2,0.4,0.8,0.7,1.3,0.7c3.9,0.1,7.9,0,11.8,0c0.2,0,0.3,0,0.5,0
			c1.2-0.2,1.1-1.2,1.2-2c0-0.9-0.8-0.7-1.3-0.7C62.4,75.7,60.4,75.8,58.3,75.8L58.3,75.8z M58.3,80.7L58.3,80.7
			c-0.5,0-1.1-0.1-1.6,0c-0.4,0.1-0.7,0.4-1.1,0.6c0.3,0.5,0.5,1.3,0.9,1.4c1.2,0.2,2.4,0.2,3.5,0c0.4-0.1,0.7-0.9,1-1.3
			c-0.4-0.2-0.7-0.5-1.1-0.6C59.3,80.6,58.8,80.7,58.3,80.7L58.3,80.7z"/>
		<path class="st7" d="M30,45.6c0.7,0,1.4-0.1,2.1,0c0.5,0.1,0.8,0.7,1.2,1.1c-0.4,0.4-0.7,1-1.1,1.1c-1.4,0.1-2.9,0.1-4.3,0
			c-0.4,0-0.7-0.7-1.1-1.1c0.4-0.4,0.7-0.9,1.2-1C28.6,45.4,29.3,45.6,30,45.6L30,45.6z"/>
		<path class="st7" d="M86.7,45.6c0.7,0,1.3-0.1,1.9,0c0.5,0.1,0.8,0.7,1.2,1c-0.4,0.4-0.7,1-1.1,1.1c-1.4,0.1-2.8,0.1-4.3,0
			c-0.4,0-1-0.7-1-1.1c0-0.4,0.6-0.9,1.1-1.1C85.1,45.4,85.9,45.6,86.7,45.6L86.7,45.6z"/>
		<path class="st7" d="M85.7,31.7c-0.2,0.2-0.4,0.6-0.8,0.9c-1.1,0.7-2.2,1.3-3.3,1.9c-0.7,0.4-1.3,0.4-1.7-0.3
			c-0.4-0.7-0.1-1.3,0.6-1.6c1.1-0.6,2.3-1.3,3.4-1.9C84.7,30.2,85.6,30.6,85.7,31.7L85.7,31.7z"/>
		<path class="st7" d="M59.3,18.4c0,0.7,0.1,1.4,0,2.1c-0.1,0.4-0.7,1-1,1c-0.4,0-1.1-0.5-1.2-0.9c-0.1-1.5-0.1-2.9,0-4.4
			c0-0.4,0.8-1,1.1-0.9c0.4,0.1,1,0.6,1.1,1.1C59.4,17,59.3,17.8,59.3,18.4L59.3,18.4L59.3,18.4z"/>
		<path class="st7" d="M36.7,33.5c0,0.9-0.8,1.5-1.6,1.1c-1.3-0.7-2.6-1.5-3.9-2.3c-0.3-0.2-0.5-1-0.3-1.3c0.2-0.3,0.9-0.7,1.2-0.5
			c1.4,0.7,2.8,1.5,4.1,2.3C36.5,33,36.6,33.3,36.7,33.5L36.7,33.5z"/>
		<path class="st7" d="M46.4,24c-0.3,0.5-0.5,1-0.8,1c-0.4,0.1-1.1,0-1.3-0.3c-0.8-1.2-1.6-2.5-2.2-3.8c-0.2-0.3,0-1,0.3-1.3
			c0.2-0.2,1.1-0.2,1.2,0C44.5,20.9,45.4,22.4,46.4,24z"/>
		<path class="st7" d="M74.6,20.2c-0.1,0.4-0.2,0.5-0.3,0.7c-0.7,1.2-1.3,2.3-2,3.5c-0.4,0.7-1,0.9-1.7,0.5c-0.6-0.4-0.6-1-0.3-1.6
			c0.6-1.1,1.2-2.2,1.9-3.3c0.3-0.4,0.9-0.6,1.4-0.6C74,19.4,74.3,20,74.6,20.2L74.6,20.2z"/>
		<path class="st7" d="M80.7,58.6c0.4,0.1,0.7,0.2,0.9,0.3c1.1,0.6,2.3,1.2,3.4,2c0.3,0.2,0.6,1,0.5,1.4c-0.2,0.7-0.9,0.8-1.5,0.5
			c-1.2-0.7-2.5-1.3-3.7-2.2c-0.3-0.2-0.4-0.9-0.4-1.3C79.9,59.1,80.4,58.8,80.7,58.6L80.7,58.6z"/>
		<path class="st7" d="M32,63.2c-0.5-0.3-1-0.5-1.1-0.8c-0.1-0.4,0-1,0.2-1.2c1.3-0.8,2.6-1.6,4-2.3c0.3-0.2,1,0.1,1.3,0.4
			c0.2,0.2,0.2,1,0,1.1C35,61.3,33.5,62.2,32,63.2L32,63.2z"/>
		<path class="st7" d="M44.9,56.7c0.4-0.6,0.8-1.2,1.2-1.7c1.1-1.5,0.2-3.7-1.6-4.1c-2.2-0.5-2.5,0.1-2.4-3c0-0.1,0-0.2,0-0.2
			c0.1-2.8-0.7-3.3,2.9-3.7c0.2,0,0.4-0.1,0.5-0.2c0.9-0.7,1.2-2.9,0.5-3.9c-1.3-1.7-1.2-1.8,0.2-3.3c0.5-0.5,1-1,1.5-1.5
			c1.1-1.1,1.5-1.1,2.8-0.2c1.4,1,2.5,1,3.9-0.1c0.3-0.2,0.5-0.7,0.5-1.1c0.4-2.5,0.4-2.6,3-2.6c0.7,0,1.4,0,2.1,0
			c0.9,0,1.5,0.3,1.6,1.3c0,0.2,0.1,0.4,0.1,0.6c0.3,1.6,1.3,2.6,2.9,2.7c0.4,0,0.9-0.3,1.3-0.6c1.9-1.3,1.9-1.4,3.6,0.3
			c0.5,0.5,1,1.1,1.6,1.6c0.8,0.8,0.8,1.5,0.1,2.3c-0.1,0.1-0.2,0.2-0.3,0.4c-0.9,1.2-0.8,2.9,0.3,3.9c0.3,0.3,0.9,0.3,1.4,0.4
			c2,0.3,2.2,0.5,2.2,2.5c0,0.8,0,1.7,0,2.5c0,0.9-0.4,1.4-1.3,1.5c-0.3,0-0.5,0.1-0.8,0.2C71,51.1,70,52.2,70,53.7
			c0,0.5,0.4,1,0.7,1.5c1.1,1.6,1.2,1.7-0.2,3.1c-0.7,0.7-1.3,1.3-2,2c-0.6,0.6-1.2,0.7-1.8,0.1c-0.2-0.2-0.4-0.3-0.7-0.5
			c-1.8-1.3-3.9-0.5-4.4,1.7c-0.3,1.4-1.2,2.1-2.6,2.1c-0.6,0-1.2,0-1.8,0c-1.6,0-1.9-0.3-2.2-1.9s-1.2-2.6-2.8-2.7
			c-0.5,0-1,0.4-1.5,0.7c-1.7,1.2-1.8,1.2-3.2-0.2c-0.6-0.6-1.2-1.2-1.8-1.8C45.4,57.5,45.2,57.1,44.9,56.7L44.9,56.7z M48.8,36.8
			c-0.3,0.5-0.7,0.9-0.8,1.4c-0.1,0.3,0.1,0.8,0.3,1.1c1,1,1.2,2.1,0.3,3.3c-0.3,0.4-0.5,0.9-0.6,1.4c-0.3,1.4-1,2.3-2.5,2.3
			c-0.9,0-1.3,0.5-1.2,1.4s0.6,1.1,1.3,1.1c1.3,0.1,2.1,0.5,2.3,1.9c0.1,0.6,0.3,1.1,0.6,1.6c0.9,1.3,0.8,2.5-0.3,3.6
			c-0.5,0.5-0.4,1,0.1,1.5c0.5,0.5,1,0.8,1.6,0.2c1.2-1.2,2.4-1.3,3.8-0.3c0.2,0.1,0.3,0.2,0.5,0.2c1.9,0.3,2.9,1.3,3,3.3
			c0,0.2,0.8,0.6,1.2,0.6c0.3,0,1-0.4,1-0.6c0-1.9,1-2.9,2.8-3.2c0.3,0,0.6-0.2,0.8-0.4c1.3-1,2.5-0.8,3.6,0.3
			c0.1,0.1,0.2,0.2,0.3,0.2c0.4-0.1,1-0.1,1.3-0.4c0.3-0.3,0.5-1.1,0.3-1.2c-1.6-1.5-1.2-3-0.2-4.5c0.1-0.2,0.2-0.5,0.3-0.8
			c0.2-1.4,1-2,2.4-2.1c1.2-0.1,1.4-0.5,1.2-1.7c-0.2-1-1-0.8-1.6-0.8c-1.2-0.1-1.7-0.7-2-1.8c-0.2-0.7-0.5-1.5-0.9-2.1
			c-0.6-1-0.6-1.8,0.2-2.6c0.2-0.2,0.3-0.4,0.4-0.5c0.4-0.5,0.4-0.9-0.1-1.4c-0.6-0.7-1.2-0.8-1.8-0.1c-1,1-2,1.2-3.2,0.3
			c-0.5-0.3-1-0.5-1.6-0.7c-1.4-0.3-2.1-1.1-2.2-2.5c-0.1-1-1.1-1.6-1.9-1c-0.4,0.3-0.6,1-0.7,1.6c-0.1,1-0.6,1.5-1.5,1.8
			c-0.8,0.2-1.7,0.6-2.4,1c-0.9,0.5-1.7,0.5-2.5-0.2C50.1,37.5,49.7,37.3,48.8,36.8L48.8,36.8z"/>
		<path class="st7" d="M64.5,47.6c0,3.5-2.8,6.2-6.3,6.2c-3.5,0-6.3-2.8-6.3-6.3c0-3.4,3-6.3,6.4-6.3C61.9,41.2,64.6,44,64.5,47.6
			L64.5,47.6z M54.2,47.5c0,2.2,1.9,4.1,4.2,4.1c2.1,0,4-2,4-4.1c0-2.1-1.9-4-4-4C56.1,43.4,54.2,45.3,54.2,47.5L54.2,47.5z"/>
	</g>
</g>
<g>
	<polygon class="st8" points="61,109.3 58.7,109.3 58.4,110.7 60.3,110.7 60.2,111.1 58.2,111.1 57.8,113.1 57.3,113.1 58.3,108.8 
		61.1,108.8 	"/>
	<path class="st8" d="M63.4,112.6c0.3,0,0.5-0.1,0.7-0.2c0.2-0.1,0.4-0.3,0.5-0.5c0.1-0.2,0.2-0.4,0.3-0.6c0.1-0.2,0.1-0.5,0.1-0.7
		c0-0.3-0.1-0.6-0.2-0.8c-0.1-0.2-0.3-0.4-0.4-0.5c-0.2-0.1-0.4-0.2-0.7-0.2c-0.3,0-0.5,0.1-0.7,0.2c-0.2,0.1-0.4,0.3-0.5,0.5
		c-0.1,0.2-0.2,0.4-0.3,0.6c-0.1,0.2-0.1,0.5-0.1,0.7c0,0.3,0.1,0.6,0.2,0.8c0.1,0.2,0.3,0.4,0.5,0.5
		C62.9,112.6,63.1,112.6,63.4,112.6 M63.4,113.1c-0.3,0-0.6-0.1-0.9-0.2c-0.3-0.1-0.5-0.4-0.6-0.6c-0.2-0.3-0.2-0.6-0.2-1
		c0-0.3,0-0.7,0.1-1c0.1-0.3,0.2-0.6,0.4-0.8c0.2-0.2,0.4-0.4,0.7-0.6c0.3-0.1,0.6-0.2,0.9-0.2c0.3,0,0.6,0.1,0.9,0.2
		c0.3,0.1,0.5,0.4,0.6,0.6c0.2,0.3,0.2,0.6,0.2,1c0,0.3,0,0.6-0.1,0.9s-0.2,0.6-0.4,0.8c-0.2,0.2-0.4,0.4-0.7,0.6
		C64,113.1,63.7,113.1,63.4,113.1"/>
	<polygon class="st8" points="66.5,113.1 67.5,108.8 68.1,108.8 69.2,111.6 69.4,112.5 69.4,112.5 69.6,111.8 70.3,108.8 
		70.8,108.8 69.8,113.1 69.2,113.1 68.1,110.2 67.8,109.4 67.8,109.4 67.7,110 67,113.1 	"/>
	<path class="st8" d="M72.1,112.6h1c0.3,0,0.5-0.1,0.7-0.2c0.2-0.1,0.4-0.3,0.6-0.4c0.2-0.2,0.3-0.4,0.4-0.6
		c0.1-0.2,0.1-0.5,0.1-0.7c0-0.3,0-0.5-0.1-0.7c-0.1-0.2-0.2-0.4-0.4-0.5c-0.2-0.1-0.4-0.2-0.7-0.2h-0.8L72.1,112.6z M71.5,113.1
		l1-4.3h1.2c0.4,0,0.7,0.1,0.9,0.2c0.3,0.2,0.5,0.4,0.6,0.6c0.1,0.3,0.2,0.6,0.2,0.9c0,0.4-0.1,0.7-0.2,1c-0.1,0.3-0.3,0.6-0.5,0.8
		c-0.2,0.2-0.5,0.4-0.8,0.5c-0.3,0.1-0.6,0.2-1,0.2H71.5z"/>
	<path class="st8" d="M78.5,112.6c0.3,0,0.5-0.1,0.7-0.2c0.2-0.1,0.4-0.3,0.5-0.5c0.1-0.2,0.2-0.4,0.3-0.6c0.1-0.2,0.1-0.5,0.1-0.7
		c0-0.3-0.1-0.6-0.2-0.8c-0.1-0.2-0.3-0.4-0.4-0.5c-0.2-0.1-0.4-0.2-0.7-0.2c-0.3,0-0.5,0.1-0.7,0.2c-0.2,0.1-0.4,0.3-0.5,0.5
		c-0.1,0.2-0.2,0.4-0.3,0.6c-0.1,0.2-0.1,0.5-0.1,0.7c0,0.3,0.1,0.6,0.2,0.8c0.1,0.2,0.3,0.4,0.5,0.5
		C78,112.6,78.2,112.6,78.5,112.6 M78.4,113.1c-0.3,0-0.6-0.1-0.9-0.2c-0.3-0.1-0.5-0.4-0.6-0.6c-0.2-0.3-0.2-0.6-0.2-1
		c0-0.3,0-0.7,0.1-1c0.1-0.3,0.2-0.6,0.4-0.8s0.4-0.4,0.7-0.6c0.3-0.1,0.6-0.2,0.9-0.2c0.3,0,0.6,0.1,0.9,0.2
		c0.3,0.1,0.5,0.4,0.6,0.6c0.2,0.3,0.2,0.6,0.2,1c0,0.3,0,0.6-0.1,0.9s-0.2,0.6-0.4,0.8c-0.2,0.2-0.4,0.4-0.7,0.6
		C79.1,113.1,78.8,113.1,78.4,113.1"/>
	<polygon class="st8" points="58.1,117.9 60.4,117.9 60.7,116.7 58.4,116.7 58.6,115.8 61.5,115.8 61.8,114.5 57.2,114.5 
		55.9,120.1 60.5,120.1 60.8,118.8 57.9,118.8 	"/>
	<polygon class="st8" points="67,114.5 65.7,116.9 65,118.4 65,118.4 65,116.9 64.8,114.5 62.6,114.5 61.3,120.1 62.8,120.1 
		63.3,117.9 63.6,116.2 63.7,116.2 64.1,120.1 65.4,120.1 67.6,116.1 67.6,116.1 67.2,117.9 66.7,120.1 68.2,120.1 69.5,114.5 	"/>
	<path class="st8" d="M73.3,116.7c-0.1,0.1-0.2,0.2-0.3,0.3c-0.1,0.1-0.3,0.1-0.5,0.1h-0.8l0.3-1.4h0.6c0.3,0,0.5,0.1,0.6,0.2
		c0.1,0.1,0.2,0.3,0.2,0.4C73.4,116.5,73.4,116.6,73.3,116.7 M74.6,114.9c-0.4-0.3-1-0.5-1.7-0.5h-2.3l-1.3,5.7H71l0.4-1.7h1.2
		c0.5,0,1-0.1,1.4-0.3c0.4-0.2,0.7-0.4,0.9-0.8c0.2-0.3,0.3-0.7,0.3-1.1C75.2,115.7,75,115.2,74.6,114.9"/>
	<path class="st8" d="M77.9,115.7h0.8c0.2,0,0.4,0,0.5,0.1c0.1,0.1,0.2,0.2,0.2,0.4c0,0.1,0,0.3-0.1,0.4c-0.1,0.1-0.2,0.2-0.3,0.3
		c-0.1,0.1-0.3,0.1-0.5,0.1h-0.9L77.9,115.7z M80.5,114.9c-0.4-0.3-0.8-0.4-1.4-0.4h-2.6l-1.3,5.7h1.7l0.4-1.9h0.8l0.7,1.9h1.8
		l-0.9-2.2c0.1,0,0.1,0,0.2-0.1c0.4-0.2,0.6-0.4,0.8-0.7c0.2-0.3,0.3-0.7,0.3-1.1C81.1,115.6,80.9,115.2,80.5,114.9"/>
	<polygon class="st8" points="83.4,117.9 85.6,117.9 85.9,116.7 83.6,116.7 83.9,115.8 86.7,115.8 87,114.5 82.4,114.5 81.1,120.1 
		85.8,120.1 86.1,118.8 83.2,118.8 	"/>
	<polygon class="st8" points="91.6,114.5 91,116.9 90.8,118.2 90.8,118.2 90.5,117.3 89.7,114.5 87.8,114.5 86.5,120.1 88,120.1 
		88.6,117.7 88.8,116.5 88.8,116.5 89.1,117.3 90,120.1 91.8,120.1 93.2,114.5 	"/>
	<path class="st8" d="M97,117.5c-0.1,0.2-0.2,0.5-0.3,0.7c-0.1,0.2-0.3,0.4-0.5,0.5c-0.2,0.1-0.4,0.2-0.7,0.2h-0.6l0.7-3.1h0.5
		c0.2,0,0.4,0,0.5,0.1c0.1,0.1,0.2,0.2,0.3,0.3c0.1,0.2,0.1,0.3,0.1,0.5C97.1,117,97.1,117.3,97,117.5 M97.7,114.7
		c-0.4-0.2-0.8-0.3-1.4-0.3h-2.1l-1.3,5.7h2.8c0.5,0,1-0.1,1.3-0.2c0.4-0.2,0.7-0.4,1-0.7c0.3-0.3,0.5-0.6,0.6-1.1
		c0.1-0.4,0.2-0.9,0.2-1.4c0-0.5-0.1-0.9-0.3-1.2C98.4,115.2,98.1,114.9,97.7,114.7"/>
	<polygon class="st8" points="101.3,117.9 103.5,117.9 103.8,116.7 101.5,116.7 101.7,115.8 104.6,115.8 104.9,114.5 100.3,114.5 
		99,120.1 103.7,120.1 104,118.8 101,118.8 	"/>
	<path class="st8" d="M107.1,115.7h0.8c0.2,0,0.4,0,0.5,0.1c0.1,0.1,0.2,0.2,0.2,0.4c0,0.1,0,0.3-0.1,0.4c-0.1,0.1-0.2,0.2-0.3,0.3
		c-0.1,0.1-0.3,0.1-0.5,0.1h-0.9L107.1,115.7z M110,117.2c0.2-0.3,0.3-0.7,0.3-1.1c0-0.5-0.2-0.9-0.5-1.2c-0.4-0.3-0.8-0.4-1.4-0.4
		h-2.6l-1.3,5.7h1.7l0.4-1.9h0.8l0.7,1.9h1.8L109,118c0.1,0,0.1,0,0.2-0.1C109.5,117.7,109.8,117.5,110,117.2"/>
	<path class="st8" d="M37.4,107.5l12.3,0c0,0,2,0,2.2,1.7c0.1,1.8-2,1.6-2,1.6s-12.4-1.8-12.8-1.8c-0.4-0.1-1.5-0.4-1.4-0.9
		C35.9,107.6,37.4,107.5,37.4,107.5"/>
	<path class="st9" d="M35.7,110.5c0,0-0.1-0.7,2-0.3c0.1,0,12.3,2.9,12.4,2.9c3,0.9,2.2,4.3-0.6,3.1c-0.2-0.1-9.2-3.4-9.2-3.4
		s0,2,0,1.9c0.1,2-3.8-0.7-4.5-1.9C35.7,112.7,35.7,110.5,35.7,110.5"/>
	<path class="st10" d="M44.2,116c-0.6-0.3-1.4-0.5-1.8,0.1c-0.4,0.6,0.8,1.8,1.4,2.2c0.1,0.1,5.8,3.5,5.8,3.5s1.9,1.2,2.3-0.1
		c0.3-1.5-1.6-2.9-1.9-3C49.9,118.7,44.8,116.3,44.2,116"/>
</g>
</svg>
